<svg width="110" height="100" viewBox="0 0 110 100" fill="none" xmlns="http://www.w3.org/2000/svg">
<path fill-rule="evenodd" clip-rule="evenodd" d="M55.1585 0.5773C66.9111 4.21154 66.9199 21.0459 73.573 31.3334C77.1569 36.8752 80.8088 41.8178 85.0849 46.852C93.2674 56.4853 109.621 61.6115 109.993 74.2107C110.339 85.9462 98.0919 96.6525 86.6408 99.5573C75.5429 102.372 66.2525 90.9513 55.1585 88.1205C47.9824 86.2894 40.7168 87.9903 33.5788 86.0174C22.5146 82.9593 8.23808 83.3663 2.40393 73.5394C-3.34993 63.8477 2.48353 51.3057 6.79327 40.9004C10.8337 31.1453 17.8469 23.3976 25.9806 16.6165C34.7087 9.3397 44.2789 -2.78701 55.1585 0.5773Z" fill="#A6A4E3"/>
</svg>
