<svg width="101" height="108" viewBox="0 0 101 108" fill="none" xmlns="http://www.w3.org/2000/svg">
<path fill-rule="evenodd" clip-rule="evenodd" d="M58.1831 5.59232C66.3843 6.19851 74.9147 0.864172 82.4965 4.06377C90.0693 7.25958 95.1451 14.9888 98.4017 22.565C101.421 29.5897 101.521 37.6344 100.163 45.1633C98.9993 51.6099 91.526 55.822 91.2191 62.3663C90.8163 70.9581 100.453 78.5599 98.2077 86.8602C96.1805 94.355 87.4812 98.0232 80.6115 101.584C73.6469 105.194 65.8363 109.301 58.1831 107.606C50.442 105.893 47.2946 95.8565 40.0581 92.6058C32.5281 89.2234 22.9889 92.9461 15.9456 88.6333C8.48962 84.0678 1.03442 76.8368 0.0666526 68.1179C-0.921137 59.2186 9.3717 52.7732 10.9878 43.9672C12.6996 34.64 5.52455 24.4336 9.64951 15.9026C13.6711 7.58537 23.0797 2.25035 32.0838 0.337565C40.8748 -1.52996 49.222 4.92997 58.1831 5.59232Z" fill="#345F93"/>
</svg>
