<svg width="85" height="109" viewBox="0 0 85 109" fill="none" xmlns="http://www.w3.org/2000/svg">
<rect x="5.119" y="0.397752" width="78.5211" height="100.05" rx="3.57977" fill="#C1E3A4" stroke="#A6A6A6" stroke-width="0.795504"/>
<rect x="3.97579" y="2.29983" width="78.9189" height="100.448" rx="3.77864" fill="#F5F5F5" stroke="#A6A6A6" stroke-width="0.397752"/>
<rect x="3.03158" y="3.35024" width="78.9189" height="100.448" rx="3.77864" fill="#F5F5F5" stroke="#A6A6A6" stroke-width="0.397752"/>
<rect x="2.0873" y="3.35024" width="78.9189" height="100.448" rx="3.77864" fill="#F5F5F5" stroke="#A6A6A6" stroke-width="0.397752"/>
<rect x="1.14309" y="4.40078" width="78.9189" height="100.448" rx="3.77864" fill="#F5F5F5" stroke="#A6A6A6" stroke-width="0.397752"/>
<rect x="0.397752" y="4.59966" width="78.5211" height="100.05" rx="3.57977" fill="#C1E3A4" stroke="#A6A6A6" stroke-width="0.795504"/>
<path d="M10.4056 104.564C10.5065 104.227 10.8162 103.997 11.1676 103.997H13.9765C14.5274 103.997 14.9114 104.543 14.725 105.062C14.4085 105.942 14.1475 106.668 13.8074 107.614C13.6838 107.958 13.3421 108.173 12.9788 108.136L10.4009 107.875C9.90377 107.825 9.57553 107.334 9.71895 106.856L10.4056 104.564Z" fill="#A6A6A6"/>
</svg>
