<svg width="359" height="353" viewBox="0 0 359 353" fill="none" xmlns="http://www.w3.org/2000/svg">
<path fill-rule="evenodd" clip-rule="evenodd" d="M250.24 83.8887C269.517 104.804 256.005 138.311 261.027 166.788C266.866 199.898 295.809 230.256 281.557 261.464C265.859 295.841 227.461 321.44 190.54 321.144C155.727 320.864 138.191 282.934 112.563 260.108C89.7312 239.773 58.7641 226.873 50.9855 196.85C42.2361 163.081 47.1964 123.752 70.1122 96.2654C92.5673 69.3317 129.7 63.7585 163.906 61.4082C195.1 59.2649 229.396 61.2717 250.24 83.8887Z" fill="#C1E3A4"/>
<path opacity="0.6" fill-rule="evenodd" clip-rule="evenodd" d="M188.483 61.667C221.843 66.8119 240.816 97.3745 262.501 123.279C285.325 150.544 318.647 175.763 313.46 210.961C308.019 247.879 271.844 269.75 238.469 286.344C204.423 303.271 167.076 314.062 131.16 301.601C89.4397 287.126 48.8107 259.664 37.9957 216.792C26.9689 173.082 47.6685 127.322 79.0377 94.9857C106.992 66.1701 148.834 55.5524 188.483 61.667Z" fill="#A4E3C6"/>
<path fill-rule="evenodd" clip-rule="evenodd" d="M172.043 89.9488C198.223 94.781 213.56 117.99 230.028 138.88C246.289 159.508 264.307 179.652 263.441 205.89C262.321 239.798 255.791 280.547 224.887 294.638C194.223 308.62 163.629 280.086 133.404 265.182C103.816 250.592 67.1607 242.545 56.2056 211.461C44.1961 177.385 54.1285 137.181 79.0707 111.017C102.124 86.8345 139.166 83.8805 172.043 89.9488Z" fill="#A4E3A7"/>
<path d="M169.719 142.162C175.344 138.112 181.869 136.087 189.237 136.087C193.287 136.087 197.731 137.156 202.569 139.406C207.406 141.6 211.231 144.187 214.044 147.169C219.837 154.369 222.256 162.75 221.412 172.312C220.512 181.875 217.362 189.356 211.906 194.644L169.212 237.337C168.144 238.406 166.794 238.912 165.219 238.912C163.644 238.912 162.35 238.406 161.281 237.337C160.762 236.825 160.354 236.211 160.083 235.533C159.812 234.856 159.683 234.129 159.706 233.4C159.706 231.825 160.212 230.475 161.281 229.406L187.1 203.587C188.506 202.35 188.506 201.056 187.1 199.65C185.694 198.244 184.4 198.244 183.162 199.65L157.344 225.469C156.823 225.993 156.199 226.404 155.512 226.675C154.825 226.946 154.088 227.072 153.35 227.044C151.775 227.044 150.481 226.537 149.412 225.469C148.893 224.956 148.485 224.342 148.214 223.664C147.943 222.987 147.815 222.261 147.837 221.531C147.837 219.956 148.344 218.606 149.412 217.537L175.231 191.719C176.75 190.312 176.75 188.906 175.231 187.5C173.937 186.094 172.7 186.094 171.294 187.5L145.475 213.6C144.948 214.116 144.324 214.522 143.638 214.792C142.952 215.063 142.218 215.193 141.481 215.175C139.906 215.175 138.556 214.669 137.375 213.6C136.25 212.531 135.687 211.237 135.687 209.662C135.687 208.087 136.306 206.681 137.544 205.444L163.419 179.569C164.825 178.162 164.825 176.869 163.419 175.631C162.012 174.394 160.662 174.394 159.425 175.631L133.325 201.562C132.087 202.687 130.794 203.306 129.387 203.306C127.812 203.306 126.462 202.744 125.45 201.562C124.381 200.437 123.819 199.087 123.819 197.512C123.819 195.937 124.381 194.644 125.45 193.575C142.662 176.25 153.294 165.787 157.344 161.906L177.369 181.706C179.562 183.787 182.094 184.856 185.187 184.856C189.125 184.856 192.219 183.281 194.525 180.131C196.1 177.825 196.662 175.294 196.212 172.481C195.762 169.669 194.581 167.306 192.669 165.337L169.719 142.162ZM181.306 177.769L157.344 153.75L117.519 193.575C112.794 188.794 110.094 181.481 109.475 171.525C108.856 161.625 111.556 153.019 117.519 145.819C124.212 139.181 132.2 135.806 141.481 135.806C150.819 135.806 158.75 139.181 165.219 145.819L189.237 169.837C190.306 170.906 190.812 172.2 190.812 173.775C190.812 175.35 190.306 176.7 189.237 177.769C188.169 178.781 186.875 179.344 185.187 179.344C183.669 179.344 182.375 178.781 181.306 177.769Z" fill="white"/>
</svg>
