<svg width="359" height="353" viewBox="0 0 359 353" fill="none" xmlns="http://www.w3.org/2000/svg">
<path fill-rule="evenodd" clip-rule="evenodd" d="M250.24 83.8887C269.516 104.804 256.005 138.311 261.027 166.788C266.866 199.898 295.808 230.256 281.557 261.464C265.859 295.841 227.461 321.44 190.539 321.144C155.726 320.864 138.191 282.934 112.563 260.108C89.7309 239.773 58.7638 226.873 50.9852 196.85C42.2358 163.081 47.1961 123.752 70.112 96.2654C92.5671 69.3317 129.7 63.7585 163.906 61.4082C195.1 59.2649 229.396 61.2717 250.24 83.8887Z" fill="#C1E3A4"/>
<path opacity="0.6" fill-rule="evenodd" clip-rule="evenodd" d="M188.483 61.667C221.843 66.8119 240.816 97.3745 262.501 123.279C285.325 150.544 318.647 175.763 313.46 210.961C308.019 247.879 271.844 269.75 238.469 286.344C204.423 303.271 167.076 314.062 131.16 301.601C89.4397 287.126 48.8107 259.664 37.9957 216.792C26.9689 173.082 47.6685 127.322 79.0377 94.9857C106.992 66.1701 148.834 55.5524 188.483 61.667Z" fill="#A4E3C6"/>
<path fill-rule="evenodd" clip-rule="evenodd" d="M172.043 89.9488C198.223 94.781 213.56 117.99 230.028 138.88C246.289 159.508 264.307 179.652 263.441 205.89C262.321 239.798 255.791 280.547 224.887 294.638C194.223 308.62 163.629 280.086 133.404 265.182C103.816 250.592 67.1607 242.545 56.2056 211.461C44.1961 177.385 54.1285 137.181 79.0707 111.017C102.124 86.8345 139.166 83.8805 172.043 89.9488Z" fill="#A4E3A7"/>
<path d="M131.7 146.7C131.7 143.04 133.154 139.53 135.742 136.942C138.33 134.354 141.84 132.9 145.5 132.9C149.16 132.9 152.67 134.354 155.258 136.942C157.846 139.53 159.3 143.04 159.3 146.7C159.3 150.36 157.846 153.87 155.258 156.458C152.67 159.046 149.16 160.5 145.5 160.5C141.84 160.5 138.33 159.046 135.742 156.458C133.154 153.87 131.7 150.36 131.7 146.7ZM145.5 139.8C143.67 139.8 141.915 140.527 140.621 141.821C139.327 143.115 138.6 144.87 138.6 146.7C138.6 148.53 139.327 150.285 140.621 151.579C141.915 152.873 143.67 153.6 145.5 153.6C147.33 153.6 149.085 152.873 150.379 151.579C151.673 150.285 152.4 148.53 152.4 146.7C152.4 144.87 151.673 143.115 150.379 141.821C149.085 140.527 147.33 139.8 145.5 139.8ZM178.475 157.63C177.029 156.527 175.816 155.15 174.904 153.577C173.993 152.003 173.401 150.266 173.163 148.463C172.925 146.661 173.046 144.829 173.518 143.073C173.99 141.318 174.805 139.672 175.915 138.232C177.025 136.792 178.408 135.586 179.986 134.682C181.564 133.779 183.304 133.196 185.108 132.967C186.912 132.738 188.743 132.868 190.496 133.349C192.25 133.83 193.89 134.653 195.325 135.771C198.149 138.03 199.973 141.307 200.406 144.898C200.838 148.488 199.843 152.105 197.636 154.97C195.429 157.835 192.185 159.718 188.603 160.216C185.021 160.713 181.386 159.785 178.482 157.63H178.475ZM186.9 139.8C185.07 139.8 183.315 140.527 182.021 141.821C180.727 143.115 180 144.87 180 146.7C180 148.53 180.727 150.285 182.021 151.579C183.315 152.873 185.07 153.6 186.9 153.6C188.73 153.6 190.485 152.873 191.779 151.579C193.073 150.285 193.8 148.53 193.8 146.7C193.8 144.87 193.073 143.115 191.779 141.821C190.485 140.527 188.73 139.8 186.9 139.8ZM128.25 167.4H146.673C145.914 169.56 145.5 171.885 145.5 174.3H128.25C127.335 174.3 126.457 174.664 125.81 175.311C125.163 175.958 124.8 176.835 124.8 177.75C124.8 183.387 127.042 187.569 130.582 190.412C132.211 191.723 134.163 192.778 136.371 193.551C134.75 195.275 133.5 197.313 132.7 199.54C130.384 198.61 128.216 197.348 126.263 195.794C121.074 191.619 117.9 185.451 117.9 177.75C117.9 175.005 118.99 172.373 120.931 170.432C122.872 168.491 125.505 167.4 128.25 167.4ZM154.249 167.4C152.419 170.572 151.924 174.34 152.872 177.877C153.821 181.413 156.135 184.428 159.307 186.258C162.478 188.088 166.247 188.583 169.783 187.635C173.32 186.686 176.335 184.372 178.165 181.2C179.994 178.029 180.49 174.26 179.541 170.724C178.593 167.187 176.278 164.172 173.107 162.342C169.935 160.512 166.167 160.017 162.63 160.966C159.094 161.914 156.079 164.229 154.249 167.4ZM164.654 167.573C165.665 167.344 166.715 167.346 167.725 167.577C168.735 167.809 169.681 168.264 170.491 168.91C171.302 169.556 171.957 170.375 172.409 171.308C172.86 172.241 173.096 173.264 173.1 174.3C173.099 175.598 172.733 176.87 172.042 177.969C171.351 179.069 170.364 179.95 169.194 180.514C168.024 181.077 166.72 181.299 165.429 181.154C164.139 181.009 162.916 180.503 161.901 179.694C160.885 178.885 160.119 177.807 159.689 176.581C159.259 175.356 159.184 174.035 159.471 172.769C159.759 171.503 160.398 170.344 161.315 169.425C162.231 168.505 163.389 167.863 164.654 167.573ZM201.818 190.412C200.189 191.723 198.237 192.778 196.029 193.551C197.648 195.275 198.895 197.314 199.693 199.54C202.039 198.581 204.212 197.332 206.137 195.794C211.326 191.619 214.5 185.451 214.5 177.75C214.5 175.005 213.409 172.373 211.468 170.432C209.527 168.491 206.895 167.4 204.15 167.4H185.727C186.486 169.56 186.9 171.885 186.9 174.3H204.15C205.065 174.3 205.942 174.664 206.589 175.311C207.236 175.958 207.6 176.835 207.6 177.75C207.6 183.387 205.357 187.569 201.818 190.412ZM183.45 195C186.195 195 188.827 196.091 190.768 198.032C192.709 199.973 193.8 202.605 193.8 205.35C193.8 213.051 190.633 219.219 185.437 223.394C180.324 227.499 173.466 229.5 166.2 229.5C158.934 229.5 152.076 227.499 146.963 223.394C141.774 219.219 138.6 213.051 138.6 205.35C138.596 203.99 138.861 202.642 139.38 201.385C139.899 200.128 140.661 198.985 141.623 198.023C142.585 197.062 143.727 196.299 144.985 195.781C146.242 195.262 147.59 194.997 148.95 195H183.45ZM183.45 201.9H148.95C148.035 201.9 147.157 202.264 146.51 202.911C145.863 203.558 145.5 204.435 145.5 205.35C145.5 210.987 147.742 215.169 151.282 218.012C154.912 220.923 160.128 222.6 166.2 222.6C172.272 222.6 177.488 220.923 181.118 218.012C184.657 215.169 186.9 210.987 186.9 205.35C186.9 204.435 186.536 203.558 185.889 202.911C185.242 202.264 184.365 201.9 183.45 201.9Z" fill="white"/>
</svg>
