<svg width="359" height="353" viewBox="0 0 359 353" fill="none" xmlns="http://www.w3.org/2000/svg">
<path fill-rule="evenodd" clip-rule="evenodd" d="M250.24 83.8887C269.516 104.804 256.005 138.311 261.027 166.788C266.866 199.898 295.808 230.256 281.557 261.464C265.859 295.841 227.461 321.44 190.539 321.144C155.726 320.864 138.191 282.934 112.563 260.108C89.7309 239.773 58.7638 226.873 50.9852 196.85C42.2358 163.081 47.1961 123.752 70.112 96.2654C92.5671 69.3317 129.7 63.7585 163.906 61.4082C195.1 59.2649 229.396 61.2717 250.24 83.8887Z" fill="#C1E3A4"/>
<path opacity="0.6" fill-rule="evenodd" clip-rule="evenodd" d="M188.483 61.667C221.843 66.8119 240.816 97.3745 262.501 123.279C285.325 150.544 318.647 175.763 313.46 210.961C308.019 247.879 271.844 269.75 238.469 286.344C204.423 303.271 167.076 314.062 131.16 301.601C89.4397 287.126 48.8107 259.664 37.9957 216.792C26.9689 173.082 47.6685 127.322 79.0377 94.9857C106.992 66.1701 148.834 55.5524 188.483 61.667Z" fill="#A4E3C6"/>
<path fill-rule="evenodd" clip-rule="evenodd" d="M172.043 89.9488C198.223 94.781 213.56 117.99 230.028 138.88C246.289 159.508 264.307 179.652 263.441 205.89C262.321 239.798 255.791 280.547 224.887 294.638C194.223 308.62 163.629 280.086 133.404 265.182C103.816 250.592 67.1607 242.545 56.2056 211.461C44.1961 177.385 54.1285 137.181 79.0707 111.017C102.124 86.8345 139.166 83.8805 172.043 89.9488Z" fill="#A4E3A7"/>
<path d="M146.457 158.117H192.596" stroke="white" stroke-width="5.1875" stroke-linecap="round" stroke-linejoin="round"/>
<path d="M146.457 173.496H192.596" stroke="white" stroke-width="5.1875" stroke-linecap="round" stroke-linejoin="round"/>
<path d="M169.526 188.875H192.595" stroke="white" stroke-width="5.1875" stroke-linecap="round" stroke-linejoin="round"/>
<path d="M169.526 204.255H192.595" stroke="white" stroke-width="5.1875" stroke-linecap="round" stroke-linejoin="round"/>
<path d="M131.078 217.327V145.044C131.078 144.432 131.321 143.846 131.754 143.413C132.186 142.98 132.773 142.737 133.385 142.737H205.668C206.28 142.737 206.867 142.98 207.299 143.413C207.732 143.846 207.975 144.432 207.975 145.044V217.327C207.975 217.939 207.732 218.526 207.299 218.959C206.867 219.391 206.28 219.634 205.668 219.634H133.385C132.773 219.634 132.186 219.391 131.754 218.959C131.321 218.526 131.078 217.939 131.078 217.327V217.327Z" stroke="white" stroke-width="5.1875" stroke-linecap="round" stroke-linejoin="round"/>
<path d="M146.457 204.255V188.875H154.147V204.255H146.457Z" stroke="white" stroke-width="5.1875" stroke-linecap="round" stroke-linejoin="round"/>
<rect x="231.569" y="139.629" width="23.3471" height="53.3647" rx="11.6735" transform="rotate(45 231.569 139.629)" fill="#A4C1E3"/>
<path d="M198.523 190.253C197.916 190.296 197.411 189.791 197.454 189.184L198.637 172.715C198.698 171.86 199.735 171.474 200.341 172.079L215.628 187.366C216.233 187.972 215.847 189.009 214.992 189.07L198.523 190.253Z" fill="#F6CA44"/>
</svg>
