<svg width="359" height="353" viewBox="0 0 359 353" fill="none" xmlns="http://www.w3.org/2000/svg">
<path fill-rule="evenodd" clip-rule="evenodd" d="M250.24 83.8887C269.517 104.804 256.005 138.311 261.027 166.788C266.866 199.898 295.809 230.256 281.557 261.464C265.859 295.841 227.461 321.44 190.54 321.144C155.727 320.864 138.191 282.934 112.563 260.108C89.7312 239.773 58.7641 226.873 50.9855 196.85C42.2361 163.081 47.1964 123.752 70.1122 96.2654C92.5673 69.3317 129.7 63.7585 163.906 61.4082C195.1 59.2649 229.396 61.2717 250.24 83.8887Z" fill="#C1E3A4"/>
<path opacity="0.6" fill-rule="evenodd" clip-rule="evenodd" d="M188.483 61.667C221.843 66.8119 240.816 97.3745 262.501 123.279C285.325 150.544 318.647 175.763 313.46 210.961C308.019 247.879 271.844 269.75 238.469 286.344C204.423 303.271 167.076 314.062 131.16 301.601C89.4397 287.126 48.8107 259.664 37.9957 216.792C26.9689 173.082 47.6685 127.322 79.0377 94.9857C106.992 66.1701 148.834 55.5524 188.483 61.667Z" fill="#A4E3C6"/>
<path fill-rule="evenodd" clip-rule="evenodd" d="M172.043 89.9488C198.223 94.781 213.56 117.99 230.028 138.88C246.289 159.508 264.307 179.652 263.441 205.89C262.321 239.798 255.791 280.547 224.887 294.638C194.223 308.62 163.629 280.086 133.404 265.182C103.816 250.592 67.1607 242.545 56.2056 211.461C44.1961 177.385 54.1285 137.181 79.0707 111.017C102.124 86.8345 139.166 83.8805 172.043 89.9488Z" fill="#A4E3A7"/>
<path d="M212.269 208.639C208.92 205.288 205.007 202.552 200.71 200.558C206.77 195.648 210.637 188.156 210.637 179.754C210.637 164.93 198.275 152.769 183.451 152.996C168.854 153.224 157.094 165.118 157.094 179.754C157.094 188.156 160.974 195.648 167.021 200.558C162.723 202.551 158.81 205.286 155.462 208.639C148.157 215.957 144.01 225.617 143.742 235.919C143.739 236.062 143.764 236.204 143.816 236.337C143.868 236.47 143.946 236.591 144.046 236.693C144.146 236.795 144.265 236.876 144.397 236.932C144.528 236.987 144.67 237.016 144.812 237.016H152.305C152.88 237.016 153.362 236.561 153.375 235.986C153.629 228.226 156.773 220.961 162.299 215.449C165.126 212.606 168.489 210.353 172.194 208.819C175.898 207.285 179.87 206.501 183.879 206.512C192.027 206.512 199.693 209.683 205.459 215.449C210.971 220.961 214.115 228.226 214.383 235.986C214.396 236.561 214.878 237.016 215.453 237.016H222.945C223.088 237.016 223.23 236.987 223.361 236.932C223.493 236.876 223.612 236.795 223.712 236.693C223.811 236.591 223.89 236.47 223.942 236.337C223.994 236.204 224.019 236.062 224.016 235.919C223.748 225.617 219.601 215.957 212.269 208.639ZM183.879 196.879C179.303 196.879 174.995 195.1 171.771 191.862C170.153 190.257 168.875 188.342 168.013 186.232C167.151 184.121 166.723 181.859 166.754 179.58C166.794 175.192 168.547 170.951 171.61 167.807C174.821 164.516 179.116 162.683 183.705 162.629C188.24 162.589 192.642 164.355 195.88 167.526C199.198 170.777 201.017 175.125 201.017 179.754C201.017 184.33 199.238 188.624 196 191.862C194.412 193.458 192.523 194.723 190.442 195.584C188.361 196.446 186.131 196.886 183.879 196.879ZM150.365 183.286C150.244 182.122 150.177 180.945 150.177 179.754C150.177 177.627 150.378 175.553 150.753 173.533C150.846 173.051 150.592 172.556 150.151 172.356C148.331 171.539 146.659 170.416 145.214 168.997C143.511 167.347 142.171 165.359 141.28 163.161C140.388 160.964 139.965 158.604 140.036 156.234C140.157 151.939 141.882 147.859 144.893 144.782C148.197 141.397 152.639 139.55 157.362 139.604C161.63 139.644 165.75 141.29 168.868 144.206C169.925 145.196 170.834 146.293 171.597 147.471C171.865 147.886 172.386 148.059 172.841 147.899C175.196 147.083 177.684 146.508 180.24 146.24C180.989 146.16 181.417 145.357 181.083 144.688C176.735 136.085 167.851 130.145 157.576 129.985C142.739 129.757 130.377 141.919 130.377 156.729C130.377 165.131 134.243 172.623 140.304 177.533C136.049 179.5 132.129 182.216 128.731 185.614C121.399 192.932 117.252 202.592 116.984 212.907C116.981 213.05 117.006 213.192 117.058 213.325C117.11 213.458 117.188 213.579 117.288 213.681C117.388 213.783 117.507 213.865 117.639 213.92C117.77 213.976 117.912 214.004 118.055 214.004H125.56C126.136 214.004 126.617 213.549 126.631 212.974C126.885 205.214 130.029 197.949 135.554 192.437C139.488 188.504 144.304 185.775 149.562 184.45C150.084 184.316 150.432 183.821 150.365 183.286V183.286Z" fill="white"/>
</svg>
